#!OML:ASF E:\Style4\Style4.ASF
:FULLY-SPECIFIED
:DEGREES
2373
root 1.52623 16.9553 -1.06035 0.62289 -16.9023 4.018
lowerback 15.9381 3.77133 -1.96021
upperback 11.7768 4.58444 -0.820504
thorax 3.57183 2.16897 -0.341577
lowerneck 6.92791 -2.80971 -4.48214
upperneck 2.18076 -4.04399 2.24466
head -0.344373 -2.06497 1.54392
rclavicle -4.77083e-015 3.06128e-014
rhumerus 18.7286 14.3805 -82.337
rradius 127.932
rwrist 21.0711
rhand 30.5844 -13.3658
rfingers 7.12502
rthumb 54.2315 -32.0461
lclavicle -4.77083e-015 3.06128e-014
lhumerus 28.0093 -22.2142 78.6569
lradius 128.439
lwrist -16.8932
lhand 23.8761 44.0458
lfingers 7.12502
lthumb 48.1273 66.199
rfemur -30.723 0.232182 9.78413
rtibia 50.2895
rfoot -19.6973 -8.84365
rtoes -18.3325
lfemur -25.1115 12.7623 -28.9599
ltibia 49.315
lfoot -29.5132 16.162
ltoes -8.61418
2374
root 1.5674 16.9498 -1.04668 0.604266 -17.7027 3.89516
lowerback 15.9938 3.46988 -2.06744
upperback 11.6455 4.16587 -0.710897
thorax 3.3843 1.94618 -0.122037
lowerneck 7.22687 -2.56338 -4.67681
upperneck 1.97091 -3.74636 2.16383
head -0.469687 -1.91702 1.55591
rclavicle 5.9039e-014 -3.18055e-015
rhumerus 18.4836 14.4202 -82.3236
rradius 127.923
rwrist 21.5984
rhand 30.7616 -12.665
rfingers 7.12502
rthumb 54.3903 -31.2356
lclavicle 5.9039e-014 -3.18055e-015
lhumerus 27.9897 -22.1527 78.6682
lradius 128.431
lwrist -16.7129
lhand 23.798 43.9457
lfingers 7.12502
lthumb 48.0554 66.1326
rfemur -30.8639 0.566662 9.79998
rtibia 50.2084
rfoot -19.6295 -8.42846
rtoes -18.012
lfemur -25.1294 12.895 -28.9431
ltibia 49.4656
lfoot -29.8973 16.214
ltoes -7.19473
2375
root 1.60687 16.9433 -1.03267 0.540178 -18.3991 3.91441
lowerback 16.1597 3.17517 -2.38524
upperback 11.4754 3.72738 -0.583866
thorax 3.0887 1.70274 0.230744
lowerneck 7.43043 -2.30649 -4.83874
upperneck 1.88036 -3.43037 2.02715
head -0.543899 -1.75934 1.53919
rclavicle 7.55382e-015 -1.66979e-014
rhumerus 18.2536 14.3669 -82.2736
rradius 127.955
rwrist 21.9935
rhand 31.153 -12.2783
rfingers 7.12502
rthumb 54.7404 -30.6031
lclavicle 7.55382e-015 -1.66979e-014
lhumerus 27.9339 -22.1199 78.7152
lradius 128.427
lwrist -16.4465
lhand 23.6345 43.895
lfingers 7.12502
lthumb 47.9046 66.1523
rfemur -30.9872 0.872511 9.65909
rtibia 50.1638
rfoot -19.6386 -8.02519
rtoes -17.3984
lfemur -25.1162 13.0081 -29.104
ltibia 49.5935
lfoot -30.2128 16.4706
ltoes -6.56146
2376
root 1.64467 16.9374 -1.01791 0.39989 -19.0549 3.93603
lowerback 16.3462 2.64793 -3.1228
upperback 11.4181 2.93066 -0.177608
thorax 2.89257 1.24363 1.16712
lowerneck 7.23638 -1.77525 -5.73905
upperneck 1.92985 -2.79204 1.66076
head -0.512574 -1.44269 1.56098
rclavicle 1.2921e-014 -1.59028e-015
rhumerus 18.599 15.1674 -81.8875
rradius 127.922
rwrist 22.0423
rhand 31.4022 -12.4557
rfingers 7.12502
rthumb 54.9629 -30.6211
lclavicle 1.2921e-014 -1.59028e-015
lhumerus 27.6755 -21.0698 79.1264
lradius 128.529
lwrist -16.1117
lhand 23.5428 43.8797
lfingers 7.12502
lthumb 47.82 66.176
rfemur -31.0344 1.16086 9.534
rtibia 50.1346
rfoot -19.6209 -7.7277
rtoes -17.3536
lfemur -25.0129 13.1549 -29.2551
ltibia 49.6869
lfoot -30.4887 16.8824
ltoes -6.36059
2377
root 1.68215 16.9332 -1.00203 0.325728 -19.6448 3.89362
lowerback 16.3641 2.08074 -3.66603
upperback 11.4491 2.11385 0.194764
thorax 2.92546 0.783686 1.97664
lowerneck 6.91607 -1.33059 -6.61445
upperneck 2.01642 -2.25273 1.20496
head -0.447897 -1.17564 1.55048
rclavicle -1.64991e-014 2.26615e-014
rhumerus 19.0649 15.9778 -81.4987
rradius 127.864
rwrist 22.0115
rhand 31.1852 -12.2752
rfingers 7.12502
rthumb 54.7693 -30.5795
lclavicle -1.64991e-014 2.26615e-014
lhumerus 27.5436 -19.884 79.5764
lradius 128.553
lwrist -15.9719
lhand 23.8141 43.5458
lfingers 7.12502
lthumb 48.0702 65.7258
rfemur -31.0916 1.40899 9.47999
rtibia 50.0888
rfoot -19.5636 -7.52264
rtoes -17.8436
lfemur -24.9579 13.2826 -29.3536
ltibia 49.7747
lfoot -30.7745 17.2785
ltoes -6.28212
2378
root 1.71692 16.9298 -0.985794 0.317075 -20.221 3.79233
lowerback 16.3927 1.97861 -3.36665
upperback 11.373 2.0115 0.0724713
thorax 2.84384 0.754561 1.69205
lowerneck 7.03107 -1.53948 -5.82319
upperneck 2.06723 -2.47958 0.876153
head -0.452445 -1.28152 1.31184
rclavicle 1.09332e-014 -1.15295e-014
rhumerus 18.6157 15.0598 -81.6666
rradius 127.928
rwrist 22.4259
rhand 30.834 -11.5968
rfingers 7.12502
rthumb 54.4552 -30.1223
lclavicle 1.09332e-014 -1.15295e-014
lhumerus 27.8368 -20.6108 79.4435
lradius 128.533
lwrist -15.6539
lhand 24.0096 43.3578
lfingers 7.12502
lthumb 48.2504 65.4529
rfemur -31.1693 1.66755 9.48997
rtibia 49.9941
rfoot -19.4184 -7.35863
rtoes -18.6278
lfemur -24.9616 13.4322 -29.3846
ltibia 49.8754
lfoot -31.1124 17.4961
ltoes -5.81356
2379
root 1.74885 16.9247 -0.970997 0.341307 -20.7747 3.60443
lowerback 16.4896 1.95466 -2.92449
upperback 11.2722 2.0269 -0.0699781
thorax 2.6978 0.794196 1.28785
lowerneck 7.2332 -1.81092 -4.87708
upperneck 1.97404 -2.7806 0.661276
head -0.517836 -1.42195 1.09083
rclavicle 4.13472e-014 -3.69739e-014
rhumerus 17.9869 13.9733 -81.9268
rradius 128.098
rwrist 22.8025
rhand 30.6898 -11.1118
rfingers 7.12502
rthumb 54.326 -29.727
lclavicle 4.13472e-014 -3.69739e-014
lhumerus 28.2061 -21.7478 79.1724
lradius 128.546
lwrist -15.45
lhand 23.911 43.3937
lfingers 7.12502
lthumb 48.1595 65.5317
rfemur -31.2259 2.00276 9.59788
rtibia 49.8583
rfoot -19.2059 -7.28176
rtoes -19.4415
lfemur -24.9962 13.67 -29.3107
ltibia 50.0062
lfoot -31.3292 17.694
ltoes -5.6104
2380
root 1.77741 16.9218 -0.958485 0.397204 -21.2912 3.27239
lowerback 16.6261 1.70573 -2.69207
upperback 11.215 1.72045 0.0373577
thorax 2.57923 0.648971 1.3095
lowerneck 7.24976 -1.76028 -4.75413
upperneck 1.92049 -2.70771 0.456003
head -0.542835 -1.38207 1.0042
rclavicle -4.21423e-014 1.11319e-014
rhumerus 17.6533 13.7943 -82.028
rradius 128.303
rwrist 22.8656
rhand 30.5852 -11.1806
rfingers 7.12502
rthumb 54.2323 -29.8603
lclavicle -4.21423e-014 1.11319e-014
lhumerus 28.3279 -21.9711 79.1522
lradius 128.444
lwrist -15.5351
lhand 23.7423 43.0649
lfingers 7.12502
lthumb 48.004 65.2758
rfemur -31.2236 2.4346 9.86643
rtibia 49.6901
rfoot -18.9104 -7.33886
rtoes -20.4423
lfemur -25.0202 13.9869 -29.0596
ltibia 50.1387
lfoot -31.4717 17.8235
ltoes -5.6949
2381
root 1.80256 16.9222 -0.945056 0.483093 -21.747 2.96816
lowerback 16.657 1.41277 -2.59298
upperback 11.1758 1.34473 0.212385
thorax 2.53379 0.458201 1.49035
lowerneck 7.42093 -1.63827 -5.02738
upperneck 1.73832 -2.58009 0.475537
head -0.629668 -1.31763 1.05912
rclavicle 6.44062e-014 -1.55052e-014
rhumerus 17.4033 13.9239 -82.079
rradius 128.479
rwrist 23.0813
rhand 30.4644 -11.5992
rfingers 7.12502
rthumb 54.124 -30.3531
lclavicle 6.44062e-014 -1.55052e-014
lhumerus 28.2708 -21.9406 79.3155
lradius 128.411
lwrist -15.5887
lhand 23.8432 42.9402
lfingers 7.12502
lthumb 48.097 65.1076
rfemur -31.2306 2.82129 10.1042
rtibia 49.5168
rfoot -18.7262 -7.35497
rtoes -20.9399
lfemur -25.0598 14.2573 -28.8298
ltibia 50.2563
lfoot -31.7624 17.7537
ltoes -5.00643
2382
root 1.8258 16.9225 -0.931924 0.497337 -22.175 2.89449
lowerback 16.6179 1.20044 -2.6822
upperback 11.1919 1.05305 0.333804
thorax 2.58194 0.299647 1.71035
lowerneck 7.59851 -1.59967 -5.39122
upperneck 1.43017 -2.57079 0.701904
head -0.752109 -1.31268 1.20024
rclavicle -6.95746e-015 -7.95139e-016
rhumerus 17.3398 13.9124 -82.0766
rradius 128.528
rwrist 23.4548
rhand 30.4051 -11.6818
rfingers 7.12502
rthumb 54.0708 -30.4718
lclavicle -6.95746e-015 -7.95139e-016
lhumerus 28.352 -22.0827 79.3916
lradius 128.488
lwrist -15.4748
lhand 23.6943 43.1705
lfingers 7.12502
lthumb 47.9598 65.4021
rfemur -31.2662 3.09021 10.1068
rtibia 49.3776
rfoot -18.6509 -7.25798
rtoes -21.3571
lfemur -25.0686 14.517 -28.838
ltibia 50.3221
lfoot -32.0694 17.6571
ltoes -4.23099
2383
root 1.84803 16.9209 -0.919468 0.519638 -22.6164 2.84652
lowerback 16.638 1.01868 -2.72365
upperback 11.1816 0.805532 0.399167
thorax 2.57175 0.169081 1.83716
lowerneck 7.60667 -1.58095 -5.63115
upperneck 1.29428 -2.56738 0.807083
head -0.793632 -1.31122 1.27725
rclavicle -1.25234e-014 1.35174e-014
rhumerus 17.2638 13.856 -82.0571
rradius 128.654
rwrist 23.5662
rhand 30.3081 -11.8712
rfingers 7.12502
rthumb 53.9838 -30.7202
lclavicle -1.25234e-014 1.35174e-014
lhumerus 28.3715 -22.2387 79.489
lradius 128.548
lwrist -15.463
lhand 23.101 43.2319
lfingers 7.12502
lthumb 47.4122 65.7144
rfemur -31.3406 3.36428 10.0746
rtibia 49.279
rfoot -18.6027 -7.07709
rtoes -21.3483
lfemur -25.0801 14.8161 -28.8762
ltibia 50.356
lfoot -32.2521 17.6381
ltoes -3.82162
2384
root 1.87023 16.9194 -0.90572 0.533053 -23.027 2.88365
lowerback 16.6706 0.829073 -2.76533
upperback 11.1581 0.547822 0.414979
thorax 2.54271 0.0359128 1.91333
lowerneck 7.51042 -1.52653 -5.89871
upperneck 1.29134 -2.51196 0.840992
head -0.77736 -1.28519 1.33172
rclavicle 1.0138e-014 4.77083e-015
rhumerus 17.1476 13.8262 -82.0305
rradius 128.849
rwrist 23.578
rhand 30.1476 -12.0942
rfingers 7.12502
rthumb 53.8396 -31.0401
lclavicle 1.0138e-014 4.77083e-015
lhumerus 28.2708 -22.3033 79.7144
lradius 128.531
lwrist -15.5323
lhand 22.6445 43.008
lfingers 7.12502
lthumb 46.9902 65.6785
rfemur -31.4564 3.58011 9.94862
rtibia 49.2281
rfoot -18.5963 -6.87703
rtoes -21.2339
lfemur -25.0939 15.1339 -29.0064
ltibia 50.3578
lfoot -32.3568 17.6588
ltoes -3.73688
2385
root 1.89113 16.9174 -0.891394 0.527185 -23.4107 2.95007
lowerback 16.6634 0.626618 -2.84197
upperback 11.1564 0.270257 0.425887
thorax 2.55999 -0.109873 2.00705
lowerneck 7.46957 -1.43838 -6.05133
upperneck 1.2634 -2.408 0.718311
head -0.782554 -1.23185 1.31607
rclavicle -4.6118e-014 6.34123e-014
rhumerus 17.1193 13.8176 -82.0361
rradius 128.996
rwrist 23.5414
rhand 30.2148 -12.0264
rfingers 7.12502
rthumb 53.9 -30.9319
lclavicle -4.6118e-014 6.34123e-014
lhumerus 28.0786 -22.3494 79.9255
lradius 128.581
lwrist -15.5725
lhand 22.9447 42.605
lfingers 7.12502
lthumb 47.2677 65.1524
rfemur -31.5728 3.76707 9.80215
rtibia 49.1993
rfoot -18.551 -6.73416
rtoes -21.5387
lfemur -25.1009 15.4913 -29.1612
ltibia 50.3546
lfoot -32.4691 17.6365
ltoes -3.46643
2386
root 1.90956 16.9139 -0.878602 0.485124 -23.8628 3.01901
lowerback 16.6783 0.452017 -2.9863
upperback 11.1585 0.0189554 0.470335
thorax 2.57065 -0.247676 2.17047
lowerneck 7.54484 -1.32324 -6.28
upperneck 1.1587 -2.2838 0.597746
head -0.832204 -1.16706 1.3166
rclavicle -3.55825e-014 1.76918e-014
rhumerus 17.1207 14.0168 -81.9738
rradius 129.082
rwrist 23.4418
rhand 30.0509 -12.0015
rfingers 7.12502
rthumb 53.7527 -31.0054
lclavicle -3.55825e-014 1.76918e-014
lhumerus 27.8164 -22.333 80.1459
lradius 128.67
lwrist -15.6266
lhand 23.299 42.3647
lfingers 7.12502
lthumb 47.595 64.7643
rfemur -31.6887 4.0896 9.65691
rtibia 49.177
rfoot -18.4805 -6.55503
rtoes -21.4306
lfemur -25.09 15.9356 -29.305
ltibia 50.3597
lfoot -32.6311 17.6216
ltoes -3.48386
2387
root 1.92673 16.9129 -0.869105 0.450385 -24.3774 3.06082
lowerback 16.7272 0.337183 -3.07622
upperback 11.1575 -0.148923 0.471614
thorax 2.55557 -0.338759 2.24619
lowerneck 7.631 -1.25247 -6.40646
upperneck 0.998546 -2.21123 0.516088
head -0.900241 -1.12671 1.31387
rclavicle 2.8625e-014 -1.15295e-014
rhumerus 17.0463 14.2966 -81.9873
rradius 129.17
rwrist 23.2156
rhand 29.5848 -12.1382
rfingers 7.12502
rthumb 53.3333 -31.4172
lclavicle 2.8625e-014 -1.15295e-014
lhumerus 27.6 -22.4018 80.2793
lradius 128.776
lwrist -15.6582
lhand 23.1701 42.6263
lfingers 7.12502
lthumb 47.476 65.08
rfemur -31.8166 4.52953 9.55111
rtibia 49.1391
rfoot -18.3798 -6.48645
rtoes -21.508
lfemur -25.0854 16.4597 -29.4085
ltibia 50.3553
lfoot -32.8047 17.5698
ltoes -3.23154
